<svg width="63" height="63" viewBox="0 0 63 63" fill="none" xmlns="http://www.w3.org/2000/svg">
<circle cx="31.178" cy="31.654" r="30.7129" fill="#9747FF" fill-opacity="0.27" stroke="#9747FF" stroke-width="0.690178"/>
<circle cx="34.4852" cy="23.1877" r="0.586" transform="rotate(-9 34.4852 23.1877)" fill="#2E4454" stroke="#502686" stroke-width="1.172"/>
<path d="M22.7261 23.8635C22.0868 23.9648 21.6506 24.5651 21.7519 25.2045C21.8531 25.8438 22.4535 26.2799 23.0928 26.1787L22.7261 23.8635ZM27.7231 25.4453C28.3624 25.3441 28.7986 24.7437 28.6973 24.1044C28.5961 23.4651 27.9957 23.0289 27.3564 23.1302L27.7231 25.4453ZM23.8262 30.809C23.1869 30.9102 22.7507 31.5106 22.8519 32.1499C22.9532 32.7892 23.5535 33.2254 24.1928 33.1241L23.8262 30.809ZM35.7686 31.2907C36.4079 31.1894 36.844 30.5891 36.7428 29.9498C36.6415 29.3105 36.0412 28.8743 35.4019 28.9756L35.7686 31.2907ZM24.5595 35.4393C23.9202 35.5405 23.484 36.1409 23.5853 36.7802C23.6866 37.4195 24.2869 37.8556 24.9262 37.7544L24.5595 35.4393ZM34.1868 36.2877C34.8261 36.1864 35.2623 35.5861 35.161 34.9468C35.0598 34.3074 34.4594 33.8713 33.8201 33.9725L34.1868 36.2877ZM23.5278 43.9089L23.3444 42.7514L23.5278 43.9089ZM20.846 41.9605L19.6884 42.1438L20.846 41.9605ZM41.6822 38.6603L40.5247 38.8437L41.6822 38.6603ZM39.7338 41.3422L39.9171 42.4997L39.7338 41.3422ZM35.8836 17.0332L35.7003 15.8756L35.8836 17.0332ZM38.5654 18.9816L39.723 18.7983L38.5654 18.9816ZM19.6776 19.5999L19.861 20.7575L19.6776 19.5999ZM17.7292 22.2818L18.8867 22.0984L17.7292 22.2818ZM43.7697 25.197V45.121H46.1137V25.197H43.7697ZM42.5977 46.293H26.1897V48.637H42.5977V46.293ZM26.1897 46.293C25.5424 46.293 25.0177 45.7683 25.0177 45.121H22.6737C22.6737 47.0628 24.2479 48.637 26.1897 48.637V46.293ZM43.7697 45.121C43.7697 45.7683 43.245 46.293 42.5977 46.293V48.637C44.5395 48.637 46.1137 47.0628 46.1137 45.121H43.7697ZM42.5977 24.025C43.245 24.025 43.7697 24.5497 43.7697 25.197H46.1137C46.1137 23.2552 44.5395 21.681 42.5977 21.681V24.025ZM25.0177 45.121V42.777H22.6737V45.121H25.0177ZM42.5977 21.681H39.0817V24.025H42.5977V21.681ZM23.0928 26.1787L27.7231 25.4453L27.3564 23.1302L22.7261 23.8635L23.0928 26.1787ZM24.1928 33.1241L35.7686 31.2907L35.4019 28.9756L23.8262 30.809L24.1928 33.1241ZM24.9262 37.7544L34.1868 36.2877L33.8201 33.9725L24.5595 35.4393L24.9262 37.7544ZM19.861 20.7575L36.0669 18.1907L35.7003 15.8756L19.4943 18.4424L19.861 20.7575ZM37.4079 19.165L40.5247 38.8437L42.8398 38.477L39.723 18.7983L37.4079 19.165ZM39.5504 40.1846L23.3444 42.7514L23.7111 45.0665L39.9171 42.4997L39.5504 40.1846ZM22.0035 41.7771L18.8867 22.0984L16.5716 22.4651L19.6884 42.1438L22.0035 41.7771ZM23.3444 42.7514C22.7051 42.8526 22.1048 42.4164 22.0035 41.7771L19.6884 42.1438C19.9922 44.0617 21.7932 45.3703 23.7111 45.0665L23.3444 42.7514ZM40.5247 38.8437C40.6259 39.483 40.1897 40.0833 39.5504 40.1846L39.9171 42.4997C41.835 42.196 43.1436 40.3949 42.8398 38.477L40.5247 38.8437ZM36.0669 18.1907C36.7063 18.0895 37.3066 18.5257 37.4079 19.165L39.723 18.7983C39.4192 16.8804 37.6182 15.5718 35.7003 15.8756L36.0669 18.1907ZM19.4943 18.4424C17.5763 18.7461 16.2678 20.5472 16.5716 22.4651L18.8867 22.0984C18.7855 21.4591 19.2216 20.8588 19.861 20.7575L19.4943 18.4424Z" fill="#502686"/>
</svg>
