<svg width="63" height="63" viewBox="0 0 63 63" fill="none" xmlns="http://www.w3.org/2000/svg">
<circle cx="31.146" cy="31.6339" r="30.7129" fill="#9747FF" fill-opacity="0.27" stroke="#9747FF" stroke-width="0.690178"/>
<path d="M31.732 16.984C28.7186 16.984 25.7729 17.8776 23.2673 19.5517C20.7618 21.2259 18.8089 23.6054 17.6557 26.3894C16.5026 29.1735 16.2008 32.2369 16.7887 35.1924C17.3766 38.1479 18.8277 40.8627 20.9585 42.9935C23.0893 45.1243 25.8041 46.5754 28.7596 47.1632C31.7151 47.7511 34.7785 47.4494 37.5625 46.2962C40.3466 45.1431 42.7261 43.1902 44.4002 40.6847C46.0744 38.1791 46.968 35.2334 46.968 32.22C46.9637 28.1805 45.3571 24.3076 42.5007 21.4512C39.6444 18.5949 35.7715 16.9883 31.732 16.984ZM27.8688 38.08H35.5952C34.8085 40.7668 33.49 43.1885 31.732 45.0959C29.974 43.1885 28.6555 40.7668 27.8688 38.08ZM27.337 35.736C26.9483 33.4081 26.9483 31.0319 27.337 28.704H36.127C36.5157 31.0319 36.5157 33.4081 36.127 35.736H27.337ZM18.84 32.22C18.839 31.0311 19.0031 29.8478 19.3278 28.704H24.9622C24.6126 31.035 24.6126 33.405 24.9622 35.736H19.3278C19.0031 34.5923 18.839 33.4089 18.84 32.22ZM35.5952 26.36H27.8688C28.6555 23.6732 29.974 21.2516 31.732 19.3441C33.49 21.2516 34.8085 23.6732 35.5952 26.36ZM38.5017 28.704H44.1361C44.7866 31.0029 44.7866 33.4371 44.1361 35.736H38.5017C38.8514 33.405 38.8514 31.035 38.5017 28.704ZM43.2132 26.36H38.0227C37.4246 24.0065 36.4201 21.7755 35.0546 19.7675C36.7992 20.2363 38.4264 21.0651 39.8315 22.2005C41.2366 23.3359 42.3885 24.7527 43.2132 26.36ZM28.4094 19.7675C27.0438 21.7755 26.0394 24.0065 25.4413 26.36H20.2508C21.0755 24.7527 22.2274 23.3359 23.6325 22.2005C25.0376 21.0651 26.6648 20.2363 28.4094 19.7675ZM20.2508 38.08H25.4413C26.0394 40.4335 27.0438 42.6645 28.4094 44.6725C26.6648 44.2037 25.0376 43.3749 23.6325 42.2395C22.2274 41.1042 21.0755 39.6873 20.2508 38.08ZM35.0546 44.6725C36.4201 42.6645 37.4246 40.4335 38.0227 38.08H43.2132C42.3885 39.6873 41.2366 41.1042 39.8315 42.2395C38.4264 43.3749 36.7992 44.2037 35.0546 44.6725Z" fill="#502686"/>
</svg>
