<svg width="63" height="63" viewBox="0 0 63 63" fill="none" xmlns="http://www.w3.org/2000/svg">
<circle cx="31.146" cy="31.654" r="30.7129" fill="#9747FF" fill-opacity="0.27" stroke="#9747FF" stroke-width="0.690178"/>
<path fill-rule="evenodd" clip-rule="evenodd" d="M17.4938 28.5657C17.1466 28.5657 16.9078 28.8368 16.9078 29.1041V45.4488C16.9078 45.7161 17.1466 45.9873 17.4938 45.9873H41.6465C41.9936 45.9873 42.2325 45.7161 42.2325 45.4488V29.1041C42.2325 28.8368 41.9936 28.5657 41.6465 28.5657H17.4938ZM15.324 29.1041C15.324 27.9144 16.3205 26.9819 17.4938 26.9819H41.6465C42.8198 26.9819 43.8163 27.9144 43.8163 29.1041V45.4488C43.8163 46.6386 42.8198 47.5711 41.6465 47.5711H17.4938C16.3205 47.5711 15.324 46.6386 15.324 45.4488V29.1041Z" fill="#502686" stroke="#502686" stroke-width="0.791892" stroke-miterlimit="10" stroke-linecap="round" stroke-linejoin="round"/>
<path fill-rule="evenodd" clip-rule="evenodd" d="M43.0244 34.9009H16.1V33.3171H43.0244V34.9009Z" fill="#502686" stroke="#502686" stroke-width="0.791892" stroke-miterlimit="10"/>
<path fill-rule="evenodd" clip-rule="evenodd" d="M20.6454 17.4158C20.2921 17.4158 20.0594 17.6771 20.0594 17.9542V27.7104C20.0594 28.1477 19.7049 28.5022 19.2676 28.5022C18.8302 28.5022 18.4757 28.1477 18.4757 27.7104V17.9542C18.4757 16.7426 19.4784 15.832 20.6454 15.832H44.7982C45.9715 15.832 46.9679 16.7645 46.9679 17.9542V34.4098C46.9679 35.6214 45.9652 36.532 44.7982 36.532H43.5153C43.0779 36.532 42.7234 36.1775 42.7234 35.7401C42.7234 35.3028 43.0779 34.9482 43.5153 34.9482H44.7982C45.1516 34.9482 45.3842 34.6869 45.3842 34.4098V17.9542C45.3842 17.6869 45.1453 17.4158 44.7982 17.4158H20.6454Z" fill="#502686" stroke="#502686" stroke-width="0.791892" stroke-miterlimit="10" stroke-linecap="round" stroke-linejoin="round"/>
<path fill-rule="evenodd" clip-rule="evenodd" d="M46.192 23.8143H19.2676V22.2305H46.192V23.8143Z" fill="#502686" stroke="#502686" stroke-width="0.791892" stroke-miterlimit="10"/>
</svg>
