<svg width="63" height="63" viewBox="0 0 63 63" fill="none" xmlns="http://www.w3.org/2000/svg">
<circle cx="31.522" cy="31.6339" r="30.7129" fill="#9747FF" fill-opacity="0.27" stroke="#9747FF" stroke-width="0.690178"/>
<path d="M45.628 23.8848C45.3521 24.0276 45.0307 24.0551 44.7346 23.9612C44.4385 23.8672 44.1918 23.6595 44.0487 23.3837C42.93 21.1738 41.2367 19.3059 39.1468 17.9764C39.0166 17.8943 38.9038 17.7873 38.8149 17.6615C38.726 17.5358 38.6627 17.3938 38.6287 17.2436C38.5947 17.0934 38.5906 16.938 38.6167 16.7862C38.6427 16.6345 38.6984 16.4893 38.7805 16.3591C38.8627 16.2288 38.9697 16.116 39.0954 16.0271C39.2212 15.9382 39.3632 15.875 39.5134 15.841C39.6636 15.807 39.819 15.8029 39.9707 15.8289C40.1225 15.855 40.2677 15.9107 40.3979 15.9928C42.8336 17.5524 44.8114 19.7309 46.129 22.3055C46.2719 22.5814 46.2993 22.9027 46.2054 23.1988C46.1114 23.495 45.9037 23.7417 45.628 23.8848ZM18.0435 24.0166C18.2582 24.0165 18.4688 23.9575 18.6522 23.8458C18.8356 23.7342 18.9849 23.5744 19.0836 23.3837C20.2023 21.1738 21.8956 19.3059 23.9855 17.9764C24.2486 17.8105 24.4349 17.5469 24.5036 17.2436C24.5723 16.9403 24.5177 16.6221 24.3518 16.3591C24.1859 16.096 23.9222 15.9097 23.6189 15.841C23.3156 15.7723 22.9974 15.8269 22.7344 15.9928C20.2987 17.5524 18.3209 19.7309 17.0033 22.3055C16.9108 22.4841 16.8658 22.6835 16.8726 22.8846C16.8795 23.0856 16.938 23.2815 17.0425 23.4534C17.147 23.6253 17.2939 23.7674 17.4693 23.866C17.6446 23.9647 17.8423 24.0165 18.0435 24.0166ZM45.3071 39.2438C45.5148 39.5999 45.6248 40.0044 45.6262 40.4166C45.6277 40.8287 45.5204 41.234 45.3152 41.5915C45.11 41.949 44.8142 42.246 44.4576 42.4527C44.1009 42.6593 43.6961 42.7683 43.284 42.7686H37.3068C37.0378 44.0933 36.3191 45.2843 35.2725 46.1397C34.2259 46.9952 32.9157 47.4625 31.564 47.4625C30.2122 47.4625 28.9021 46.9952 27.8554 46.1397C26.8088 45.2843 26.0901 44.0933 25.8212 42.7686H19.844C19.432 42.7678 19.0276 42.6585 18.6714 42.4516C18.3152 42.2447 18.0198 41.9476 17.8149 41.5902C17.6101 41.2328 17.5031 40.8278 17.5046 40.4158C17.5061 40.0039 17.6162 39.5997 17.8237 39.2438C19.1437 36.9658 19.844 33.7266 19.844 29.8766C19.844 26.7683 21.0787 23.7873 23.2767 21.5893C25.4746 19.3914 28.4556 18.1566 31.564 18.1566C34.6723 18.1566 37.6533 19.3914 39.8512 21.5893C42.0492 23.7873 43.284 26.7683 43.284 29.8766C43.284 33.7252 43.9842 36.9643 45.3071 39.2438ZM34.8778 42.7686H28.2501C28.4929 43.4534 28.9419 44.0461 29.5353 44.4653C30.1287 44.8845 30.8374 45.1096 31.564 45.1096C32.2905 45.1096 32.9992 44.8845 33.5926 44.4653C34.186 44.0461 34.635 43.4534 34.8778 42.7686ZM43.284 40.4246C41.7252 37.7481 40.94 34.1998 40.94 29.8766C40.94 27.3899 39.9521 25.0051 38.1938 23.2468C36.4354 21.4884 34.0506 20.5006 31.564 20.5006C29.0773 20.5006 26.6925 21.4884 24.9341 23.2468C23.1758 25.0051 22.188 27.3899 22.188 29.8766C22.188 34.2013 21.3998 37.7495 19.844 40.4246H43.284Z" fill="#502686"/>
</svg>
