<svg width="63" height="63" viewBox="0 0 63 63" fill="none" xmlns="http://www.w3.org/2000/svg">
<circle cx="31.058" cy="31.6539" r="30.7129" fill="#9747FF" fill-opacity="0.27" stroke="#9747FF" stroke-width="0.690178"/>
<path d="M36.6783 20.5618C36.6783 20.2447 36.8042 19.9406 37.0284 19.7164C37.2526 19.4922 37.5567 19.3663 37.8737 19.3663H40.2646V16.9754C40.2646 16.6583 40.3906 16.3543 40.6148 16.1301C40.839 15.9059 41.143 15.7799 41.4601 15.7799C41.7771 15.7799 42.0812 15.9059 42.3054 16.1301C42.5296 16.3543 42.6555 16.6583 42.6555 16.9754V19.3663H45.0465C45.3635 19.3663 45.6676 19.4922 45.8918 19.7164C46.116 19.9406 46.2419 20.2447 46.2419 20.5618C46.2419 20.8788 46.116 21.1829 45.8918 21.4071C45.6676 21.6313 45.3635 21.7572 45.0465 21.7572H42.6555V24.1481C42.6555 24.4652 42.5296 24.7692 42.3054 24.9934C42.0812 25.2176 41.7771 25.3436 41.4601 25.3436C41.143 25.3436 40.839 25.2176 40.6148 24.9934C40.3906 24.7692 40.2646 24.4652 40.2646 24.1481V21.7572H37.8737C37.5567 21.7572 37.2526 21.6313 37.0284 21.4071C36.8042 21.1829 36.6783 20.8788 36.6783 20.5618ZM46.0267 28.7327C46.5729 31.9792 46.0732 35.3153 44.5997 38.2592C43.1262 41.2032 40.7553 43.6027 37.8292 45.1114C34.9031 46.62 31.5732 47.1597 28.3204 46.6525C25.0676 46.1453 22.0602 44.6174 19.7323 42.2896C17.4044 39.9617 15.8766 36.9542 15.3694 33.7014C14.8621 30.4486 15.4018 27.1187 16.9105 24.1926C18.4191 21.2665 20.8186 18.8956 23.7626 17.4221C26.7066 15.9487 30.0426 15.449 33.2891 15.9951C33.5995 16.05 33.8756 16.2252 34.0574 16.4826C34.2392 16.74 34.312 17.0587 34.26 17.3696C34.208 17.6804 34.0354 17.9581 33.7797 18.1423C33.524 18.3265 33.2059 18.4023 32.8946 18.3531C31.009 18.0359 29.0769 18.1334 27.2328 18.6389C25.3887 19.1443 23.6768 20.0455 22.2164 21.2798C20.756 22.514 19.5821 24.0517 18.7763 25.7858C17.9706 27.5199 17.5525 29.4087 17.5509 31.3209C17.5481 34.5399 18.7312 37.6472 20.8743 40.0492C22.2076 38.1171 24.0824 36.6224 26.2628 35.753C25.0916 34.8305 24.2369 33.5659 23.8176 32.1351C23.3984 30.7043 23.4354 29.1784 23.9236 27.7697C24.4118 26.3609 25.3268 25.1393 26.5415 24.2747C27.7561 23.4101 29.21 22.9455 30.701 22.9455C32.1919 22.9455 33.6458 23.4101 34.8605 24.2747C36.0751 25.1393 36.9902 26.3609 37.4783 27.7697C37.9665 29.1784 38.0035 30.7043 37.5843 32.1351C37.1651 33.5659 36.3104 34.8305 35.1391 35.753C37.3196 36.6224 39.1943 38.1171 40.5276 40.0492C42.6707 37.6472 43.8538 34.5399 43.851 31.3209C43.8511 30.5859 43.7901 29.8521 43.6687 29.1272C43.6412 28.9717 43.6448 28.8123 43.6792 28.6582C43.7137 28.504 43.7783 28.3583 43.8695 28.2293C43.9606 28.1003 44.0763 27.9906 44.2101 27.9067C44.3438 27.8227 44.4929 27.766 44.6486 27.7399C44.8044 27.7139 44.9638 27.719 45.1175 27.7548C45.2713 27.7907 45.4165 27.8567 45.5446 27.949C45.6728 28.0413 45.7813 28.1581 45.8641 28.2926C45.9468 28.4271 46.0021 28.5767 46.0267 28.7327ZM30.701 34.9072C31.6467 34.9072 32.5712 34.6268 33.3576 34.1013C34.144 33.5759 34.7569 32.8291 35.1188 31.9553C35.4807 31.0816 35.5754 30.1201 35.3909 29.1925C35.2064 28.2649 34.751 27.4129 34.0822 26.7441C33.4135 26.0754 32.5614 25.62 31.6339 25.4355C30.7063 25.251 29.7448 25.3456 28.871 25.7076C27.9973 26.0695 27.2505 26.6824 26.725 27.4688C26.1996 28.2551 25.9191 29.1796 25.9191 30.1254C25.9191 31.3936 26.4229 32.6099 27.3197 33.5067C28.2165 34.4034 29.4328 34.9072 30.701 34.9072ZM30.701 44.4709C33.6199 44.4738 36.4561 43.5007 38.7584 41.7064C37.8935 40.3539 36.7022 39.2408 35.294 38.4698C33.8859 37.6988 32.3064 37.2946 30.701 37.2946C29.0956 37.2946 27.516 37.6988 26.1079 38.4698C24.6998 39.2408 23.5084 40.3539 22.6436 41.7064C24.9459 43.5007 27.782 44.4738 30.701 44.4709Z" fill="#502686"/>
</svg>
