<svg width="63" height="63" viewBox="0 0 63 63" fill="none" xmlns="http://www.w3.org/2000/svg">
<circle cx="31.058" cy="31.6339" r="30.7129" fill="#9747FF" fill-opacity="0.27" stroke="#9747FF" stroke-width="0.690178"/>
<path d="M46.6289 16.984H36.2483C35.2411 16.984 34.2477 17.2185 33.3468 17.669C32.4459 18.1194 31.6623 18.7734 31.058 19.5792C30.4537 18.7734 29.67 18.1194 28.7692 17.669C27.8683 17.2185 26.8749 16.984 25.8677 16.984H15.4871C14.7989 16.984 14.1388 17.2574 13.6521 17.7441C13.1654 18.2308 12.892 18.8909 12.892 19.5792V40.3403C12.892 41.0286 13.1654 41.6887 13.6521 42.1753C14.1388 42.662 14.7989 42.9354 15.4871 42.9354H25.8677C26.9001 42.9354 27.8903 43.3456 28.6203 44.0756C29.3503 44.8056 29.7604 45.7957 29.7604 46.8282C29.7604 47.1723 29.8971 47.5023 30.1405 47.7457C30.3838 47.989 30.7139 48.1257 31.058 48.1257C31.4021 48.1257 31.7322 47.989 31.9755 47.7457C32.2189 47.5023 32.3556 47.1723 32.3556 46.8282C32.3556 45.7957 32.7657 44.8056 33.4957 44.0756C34.2257 43.3456 35.2159 42.9354 36.2483 42.9354H46.6289C47.3171 42.9354 47.9772 42.662 48.4639 42.1753C48.9506 41.6887 49.224 41.0286 49.224 40.3403V19.5792C49.224 18.8909 48.9506 18.2308 48.4639 17.7441C47.9772 17.2574 47.3171 16.984 46.6289 16.984ZM25.8677 40.3403H15.4871V19.5792H25.8677C26.9001 19.5792 27.8903 19.9893 28.6203 20.7193C29.3503 21.4493 29.7604 22.4395 29.7604 23.4719V41.6379C28.6385 40.7936 27.2719 40.3381 25.8677 40.3403ZM46.6289 40.3403H36.2483C34.8441 40.3381 33.4775 40.7936 32.3556 41.6379V23.4719C32.3556 22.4395 32.7657 21.4493 33.4957 20.7193C34.2257 19.9893 35.2159 19.5792 36.2483 19.5792H46.6289V40.3403ZM36.2483 23.4719H42.7361C43.0803 23.4719 43.4103 23.6086 43.6537 23.8519C43.897 24.0953 44.0337 24.4253 44.0337 24.7694C44.0337 25.1136 43.897 25.4436 43.6537 25.687C43.4103 25.9303 43.0803 26.067 42.7361 26.067H36.2483C35.9041 26.067 35.5741 25.9303 35.3308 25.687C35.0874 25.4436 34.9507 25.1136 34.9507 24.7694C34.9507 24.4253 35.0874 24.0953 35.3308 23.8519C35.5741 23.6086 35.9041 23.4719 36.2483 23.4719ZM44.0337 29.9597C44.0337 30.3039 43.897 30.6339 43.6537 30.8772C43.4103 31.1206 43.0803 31.2573 42.7361 31.2573H36.2483C35.9041 31.2573 35.5741 31.1206 35.3308 30.8772C35.0874 30.6339 34.9507 30.3039 34.9507 29.9597C34.9507 29.6156 35.0874 29.2855 35.3308 29.0422C35.5741 28.7989 35.9041 28.6622 36.2483 28.6622H42.7361C43.0803 28.6622 43.4103 28.7989 43.6537 29.0422C43.897 29.2855 44.0337 29.6156 44.0337 29.9597ZM44.0337 35.15C44.0337 35.4941 43.897 35.8242 43.6537 36.0675C43.4103 36.3109 43.0803 36.4476 42.7361 36.4476H36.2483C35.9041 36.4476 35.5741 36.3109 35.3308 36.0675C35.0874 35.8242 34.9507 35.4941 34.9507 35.15C34.9507 34.8059 35.0874 34.4758 35.3308 34.2325C35.5741 33.9891 35.9041 33.8524 36.2483 33.8524H42.7361C43.0803 33.8524 43.4103 33.9891 43.6537 34.2325C43.897 34.4758 44.0337 34.8059 44.0337 35.15Z" fill="#502686"/>
</svg>
