<svg width="54" height="57" viewBox="0 0 54 57" fill="none" xmlns="http://www.w3.org/2000/svg">
<path d="M26.7216 28.6475C32.8708 28.6475 37.8556 23.4661 37.8556 17.0746C37.8556 10.6831 32.8708 5.50171 26.7216 5.50171C20.5725 5.50171 15.5876 10.6831 15.5876 17.0746C15.5876 23.4661 20.5725 28.6475 26.7216 28.6475Z" stroke="white" stroke-width="3.5625" stroke-linecap="round" stroke-linejoin="round"/>
<path d="M7.59311 51.7932C7.59311 42.8358 16.1663 35.5912 26.7213 35.5912C28.8591 35.5912 30.93 35.8921 32.8673 36.4476" stroke="white" stroke-width="3.5625" stroke-linecap="round" stroke-linejoin="round"/>
<path d="M48.9896 42.5349C48.9896 44.2709 48.522 45.9142 47.6981 47.303C47.2305 48.1362 46.6292 48.8769 45.9389 49.4787C44.3802 50.9369 42.3315 51.7933 40.0824 51.7933C36.8313 51.7933 34.0032 49.9879 32.4667 47.303C31.6428 45.9142 31.1752 44.2709 31.1752 42.5349C31.1752 39.6186 32.4667 37.0031 34.5154 35.3135C36.0519 34.0404 37.9892 33.2766 40.0824 33.2766C45.0037 33.2766 48.9896 37.4197 48.9896 42.5349Z" stroke="white" stroke-width="3.5625" stroke-miterlimit="10" stroke-linecap="round" stroke-linejoin="round"/>
<path d="M36.6086 42.5351L38.8131 44.8265L43.5562 40.2668" stroke="white" stroke-width="3.5625" stroke-linecap="round" stroke-linejoin="round"/>
</svg>
