<svg width="53" height="54" viewBox="0 0 53 54" fill="none" xmlns="http://www.w3.org/2000/svg">
<path d="M10.2584 33.2415C7.84766 33.2415 5.61646 34.0878 3.84689 35.4983C1.48746 37.3705 0 40.2684 0 43.4998C0 45.4233 0.538565 47.2441 1.48746 48.7829C3.25703 51.7578 6.51407 53.7582 10.2584 53.7582C12.8486 53.7582 15.208 52.8093 17.0033 51.1936C17.7983 50.5268 18.4907 49.7061 19.0293 48.7829C19.9782 47.2441 20.5167 45.4233 20.5167 43.4998C20.5167 37.8321 15.9261 33.2415 10.2584 33.2415ZM15.5671 42.3971L10.1045 47.4493C9.74546 47.7827 9.25818 47.9622 8.79656 47.9622C8.30928 47.9622 7.82201 47.7827 7.43732 47.398L4.89837 44.8591C4.15464 44.1153 4.15464 42.8843 4.89837 42.1406C5.64211 41.3969 6.87311 41.3969 7.61684 42.1406L8.84785 43.3716L12.9512 39.576C13.7206 38.8579 14.9516 38.9092 15.6697 39.6786C16.3878 40.448 16.3365 41.679 15.5671 42.3971Z" fill="white"/>
<path d="M35.5197 4.903V14.6485H31.6728V4.903C31.6728 4.21056 31.0573 3.87716 30.647 3.87716C30.5187 3.87716 30.3905 3.90281 30.2623 3.9541L9.92506 11.6222C8.56582 12.1352 7.69386 13.4175 7.69386 14.8793V16.5975C5.36008 18.3415 3.84697 21.1369 3.84697 24.2913V14.8793C3.84697 11.8274 5.71912 9.10894 8.56582 8.03181L28.9287 0.338025C29.4929 0.132858 30.0828 0.0302734 30.647 0.0302734C33.2116 0.0302734 35.5197 2.10759 35.5197 4.903Z" fill="white"/>
<path d="M52.5746 31.9593V34.5239C52.5746 35.2163 52.036 35.7805 51.3179 35.8062H47.5736C46.2144 35.8062 44.9834 34.806 44.8808 33.4724C44.8039 32.6774 45.1116 31.9337 45.6245 31.4207C46.0862 30.9335 46.7273 30.677 47.4198 30.677H51.2923C52.036 30.7026 52.5746 31.2669 52.5746 31.9593Z" fill="white"/>
<path d="M47.3938 27.9842H50.0097C51.4202 27.9842 52.5742 26.8301 52.5742 25.4196V24.2912C52.5742 18.9825 48.2401 14.6483 42.9314 14.6483H13.4898C11.3099 14.6483 9.30955 15.3664 7.69386 16.5974C5.36008 18.3413 3.84697 21.1367 3.84697 24.2912V28.8562C3.84697 29.8307 4.87281 30.4462 5.79606 30.1385C7.23223 29.6512 8.74534 29.3947 10.2585 29.3947C18.0292 29.3947 24.3637 35.7293 24.3637 43.5C24.3637 45.3465 23.8764 47.3725 23.1071 49.1677C22.6967 50.091 23.3379 51.1938 24.3381 51.1938H42.9314C48.2401 51.1938 52.5742 46.8596 52.5742 41.5509V41.0636C52.5742 39.6531 51.4202 38.499 50.0097 38.499H47.7785C45.3164 38.499 42.957 36.9859 42.3159 34.6009C41.803 32.6518 42.4185 30.754 43.7008 29.523C44.6497 28.5484 45.9576 27.9842 47.3938 27.9842ZM33.3398 27.4713H20.5168C19.4653 27.4713 18.5934 26.5993 18.5934 25.5478C18.5934 24.4964 19.4653 23.6244 20.5168 23.6244H33.3398C34.3913 23.6244 35.2632 24.4964 35.2632 25.5478C35.2632 26.5993 34.3913 27.4713 33.3398 27.4713Z" fill="white"/>
</svg>
