<svg width="47" height="37" viewBox="0 0 47 37" fill="none" xmlns="http://www.w3.org/2000/svg">
<path d="M36.3871 15.9193C36.3871 16.3691 36.2537 16.8088 36.0038 17.1828C35.7539 17.5568 35.3987 17.8483 34.9832 18.0204C34.5676 18.1926 34.1104 18.2376 33.6692 18.1498C33.2281 18.0621 32.8228 17.8455 32.5048 17.5274C32.1867 17.2094 31.9701 16.8042 31.8824 16.363C31.7946 15.9219 31.8397 15.4646 32.0118 15.049C32.1839 14.6335 32.4754 14.2783 32.8494 14.0284C33.2234 13.7785 33.6631 13.6452 34.1129 13.6452C34.716 13.6452 35.2945 13.8848 35.721 14.3112C36.1475 14.7377 36.3871 15.3162 36.3871 15.9193ZM28.8064 6.06451H21.2258C20.8237 6.06451 20.4381 6.22425 20.1537 6.50858C19.8694 6.79291 19.7097 7.17854 19.7097 7.58064C19.7097 7.98274 19.8694 8.36838 20.1537 8.6527C20.4381 8.93703 20.8237 9.09677 21.2258 9.09677H28.8064C29.2085 9.09677 29.5942 8.93703 29.8785 8.6527C30.1628 8.36838 30.3226 7.98274 30.3226 7.58064C30.3226 7.17854 30.1628 6.79291 29.8785 6.50858C29.5942 6.22425 29.2085 6.06451 28.8064 6.06451ZM47 15.1613V21.2258C47 22.4321 46.5208 23.589 45.6678 24.442C44.8148 25.295 43.6579 25.7742 42.4516 25.7742H42.0043L38.9323 34.3744C38.7219 34.9635 38.3346 35.4731 37.8233 35.8334C37.312 36.1938 36.7018 36.3871 36.0763 36.3871H33.6656C33.0401 36.3871 32.4299 36.1938 31.9186 35.8334C31.4073 35.4731 31.0199 34.9635 30.8096 34.3744L30.4457 33.3548H19.5865L19.2226 34.3744C19.0123 34.9635 18.6249 35.4731 18.1136 35.8334C17.6023 36.1938 16.9921 36.3871 16.3666 36.3871H13.956C13.3305 36.3871 12.7202 36.1938 12.2089 35.8334C11.6976 35.4731 11.3103 34.9635 11.1 34.3744L8.71774 27.711C6.45147 25.1461 5.03243 21.944 4.65451 18.5422C4.16523 18.7992 3.75548 19.1851 3.46956 19.658C3.18364 20.131 3.03243 20.6731 3.03226 21.2258C3.03226 21.6279 2.87252 22.0135 2.58819 22.2979C2.30386 22.5822 1.91823 22.7419 1.51613 22.7419C1.11403 22.7419 0.728393 22.5822 0.444064 22.2979C0.159734 22.0135 0 21.6279 0 21.2258C0.0023166 19.8737 0.456397 18.5612 1.2901 17.4967C2.1238 16.4323 3.28931 15.677 4.60145 15.3508C4.94015 11.1726 6.83778 7.27456 9.91753 4.43074C12.9973 1.58692 17.0339 0.0053227 21.2258 0H40.9355C41.3376 0 41.7232 0.159735 42.0075 0.444064C42.2919 0.728393 42.4516 1.11403 42.4516 1.51613C42.4516 1.91823 42.2919 2.30386 42.0075 2.58819C41.7232 2.87252 41.3376 3.03226 40.9355 3.03226H36.8817C39.3978 4.79759 41.3767 7.22441 42.5994 10.0443C42.6809 10.2339 42.7605 10.4234 42.8363 10.6129C43.9747 10.7095 45.0351 11.2311 45.8066 12.0738C46.578 12.9165 47.0041 14.0188 47 15.1613ZM43.9677 15.1613C43.9677 14.7592 43.808 14.3735 43.5237 14.0892C43.2393 13.8049 42.8537 13.6452 42.4516 13.6452H41.758C41.4351 13.6455 41.1205 13.5427 40.86 13.3518C40.5996 13.1609 40.4069 12.8919 40.3101 12.5839C39.4414 9.81188 37.7096 7.39003 35.3674 5.67174C33.0252 3.95344 30.1952 3.02863 27.2903 3.03226H21.2258C18.5777 3.03212 15.9868 3.80251 13.769 5.24948C11.5512 6.69646 9.80241 8.75749 8.73579 11.1813C7.66917 13.605 7.33084 16.2868 7.76208 18.8995C8.19331 21.5122 9.37547 23.943 11.1644 25.8955C11.3012 26.0442 11.4069 26.2189 11.4752 26.4091L13.956 33.3548H16.3666L17.0906 31.3289C17.1957 31.0345 17.3892 30.7798 17.6447 30.5997C17.9001 30.4195 18.205 30.3227 18.5176 30.3226H31.5146C31.8272 30.3227 32.1321 30.4195 32.3876 30.5997C32.643 30.7798 32.8366 31.0345 32.9417 31.3289L33.6656 33.3548H36.0763L39.5084 23.7483C39.6135 23.4539 39.807 23.1992 40.0625 23.019C40.318 22.8389 40.6229 22.7421 40.9355 22.7419H42.4516C42.8537 22.7419 43.2393 22.5822 43.5237 22.2979C43.808 22.0135 43.9677 21.6279 43.9677 21.2258V15.1613Z" fill="white"/>
</svg>
